# xmcd
#
# Track frame offsets: 
#        150
#        23112
#        49555
#        69517
#        102865
#        122632
#        150807
#        172819
#        191199
#        206922
#        218609
#        245248
#        266396
#        277196
#        291935
#        315933
#        332455
#        339000
#
# Disc length: 4802 seconds
#
# Revision: 0
# Processed by: cddbd v1.5.1PL0 Copyright (c) Steve Scherf et al.
# Submitted via: ExactAudioCopy v0.95a5
#
DISCID=fb12c012
DTITLE=Livin' Blues - Livin' Blues [CD2]
DYEAR=1900
DGENRE=Blues
TTITLE0=Border Line
TTITLE1=Back Stage
TTITLE2=Blue Side of Life
TTITLE3=Black Night
TTITLE4=Blueshouse
TTITLE5=Red Lights
TTITLE6=Shannon
TTITLE7=Crazy
TTITLE8=Sweet Suzanne
TTITLE9=Sunrise
TTITLE10=I Don`t Know
TTITLE11=Lonesome Road
TTITLE12=Hear Me Out
TTITLE13=Midnight Blues
TTITLE14=Selection
TTITLE15=Black Jack Billy
TTITLE16=Pisces
TTITLE17=Polisch Blues
EXTD=
EXTT0=
EXTT1=
EXTT2=
EXTT3=
EXTT4=
EXTT5=
EXTT6=
EXTT7=
EXTT8=
EXTT9=
EXTT10=
EXTT11=
EXTT12=
EXTT13=
EXTT14=
EXTT15=
EXTT16=
EXTT17=
PLAYORDER=
